# xmcd
#
# Track frame offsets:
#	150
#	16379
#	24994
#	38241
#	49431
#	61676
#	74181
#	85648
#	98655
#	110281
#	121015
#	132333
#	150267
#	159404
#
# Disc length: 2249 seconds
#
# Revision: 1
# Processed by: cddbd v1.5.2PL0 Copyright (c) Steve Scherf et al.
# Submitted via: audiograbber 1.83.01
#
DISCID=a708c70e
DTITLE=Chip Hanna  - Old South Jamboree
DYEAR=2008
DGENRE=Bluegrass
TTITLE0=Beetle Boot
TTITLE1=Light A Fire
TTITLE2=Jesus Ain't Gone
TTITLE3=Carson Road
TTITLE4=Beer Drinkin' Women
TTITLE5=The Chosen One
TTITLE6=Wasting My Time
TTITLE7=Old South Jamboree
TTITLE8=Interstate 10
TTITLE9=Gunfighter's Blood
TTITLE10=New York City
TTITLE11=Party Line 
TTITLE12=One More Song
TTITLE13=Barrel Of My Gun
EXTD=
EXTT0=
EXTT1=
EXTT2=
EXTT3=
EXTT4=
EXTT5=
EXTT6=
EXTT7=
EXTT8=
EXTT9=
EXTT10=
EXTT11=
EXTT12=
EXTT13=
PLAYORDER=
